<svg
   class="moon"
   aria-hidden="true"
   viewBox="0 0 24 24"
   xmlns="http://www.w3.org/2000/svg"
  >
  <path d="M 12.09535,23.179 C 7.6693766,23.179 3.4021461,20.737531 1.2892783,16.518518 -1.6274346,10.691319 0.5616682,3.6752315 6.2739864,0.54474683 L 7.268419,0 6.9716815,1.0943186 C 6.2580639,3.728307 6.537914,6.5224865 7.7596041,8.9620257 9.0864793,11.612419 11.366775,13.58779 14.179267,14.523365 c 2.813458,0.935574 5.821364,0.719895 8.472219,-0.60699 v 0 c 0.120625,-0.06031 0.23739,-0.124486 0.354155,-0.188659 l 0.994433,-0.54523 -0.282263,1.086599 c -0.898897,3.316249 -3.173403,6.098366 -6.240173,7.634175 -1.72928,0.865612 -3.569536,1.275258 -5.382288,1.27574 z M 5.7910039,1.9715106 C 1.2492308,5.073045 -0.36376692,11.060435 2.1529534,16.086195 c 2.7396353,5.471592 9.4193666,7.693523 14.8918816,4.954348 2.486806,-1.245824 4.408121,-3.383316 5.394833,-5.962299 -2.71744,1.171037 -5.733065,1.303725 -8.565341,0.360913 C 10.816724,14.422039 8.3386042,12.275379 6.895929,9.394349 5.7413064,7.0884634 5.3606138,4.4921105 5.7910039,1.9715106 Z" style="stroke-width:0.482502" />
</svg>
