<svg
  class="sun"
  viewBox="0 0 24 24"
  xmlns="http://www.w3.org/2000/svg" >
  <rect
    x="5.2274232"
    y="-6.8813095"
    transform="rotate(67.499572)"
    width="1.9355811"
    height="0.77421308"
    style="stroke-width:0.0483883" />
  <rect
    x="5.2260847"
    y="6.1070871"
    transform="rotate(22.500428)"
    width="1.9355811"
    height="0.77421308"
    style="stroke-width:0.0483883" />
  <rect
    x="-3.956871"
    y="15.294417"
    transform="rotate(-22.500428)"
    width="1.9355811"
    height="0.77421308"
    style="stroke-width:0.0483883" />
  <rect
    x="-16.067572"
    y="-16.946257"
    transform="rotate(-157.49209)"
    width="0.77417123"
    height="1.9353796"
    style="stroke-width:0.0483857" />
  <rect
    x="-26.128567"
    y="6.1095247"
    transform="rotate(-112.50043)"
    width="1.9355811"
    height="0.77421308"
    style="stroke-width:0.0483883" />
  <rect
    x="-26.130569"
    y="-6.8813043"
    transform="rotate(-157.49957)"
    width="1.9355811"
    height="0.77421308"
    style="stroke-width:0.0483883" />
  <rect
    x="-16.943933"
    y="-16.066092"
    transform="rotate(157.49957)"
    width="1.9355811"
    height="0.77421308"
    style="stroke-width:0.0483883" />
  <rect
    x="15.290116"
    y="-3.9605029"
    transform="rotate(22.507915)"
    width="0.77417123"
    height="1.9353796"
    style="stroke-width:0.0483857" />
  <path d="m 12,4.2580645 c -4.2689032,0 -7.7419355,3.4730323 -7.7419355,7.7419355 0,4.268903 3.4730323,7.741935 7.7419355,7.741935 4.268903,0 7.741935,-3.473032 7.741935,-7.741935 C 19.741935,7.7310968 16.268903,4.2580645 12,4.2580645 Z M 12,18.967742 C 8.1580645,18.967742 5.0322581,15.841935 5.0322581,12 5.0322581,8.1580645 8.1580645,5.0322581 12,5.0322581 c 3.841935,0 6.967742,3.1258064 6.967742,6.9677419 0,3.841935 -3.125807,6.967742 -6.967742,6.967742 z" style="stroke-width:0.0483871" />
  <rect
    x="11.612904"
    width="0.77419353"
    height="3.483871"
    y="0"
    style="stroke-width:0.0483871" />
  <rect
    x="4.9707489"
    y="-0.387173"
    transform="rotate(45)"
    width="3.4837892"
    height="0.77418613"
    style="stroke-width:0.0483866" />
  <rect
    x="0"
    y="11.612904"
    width="3.483871"
    height="0.77419353"
    style="stroke-width:0.0483871" />
  <rect
    x="-17.357895"
    y="-12.000463"
    transform="rotate(-135)"
    width="0.77418613"
    height="3.4837892"
    style="stroke-width:0.0483866" />
  <rect
    x="11.612904"
    y="20.516129"
    width="0.77419353"
    height="3.483871"
    style="stroke-width:0.0483871" />
  <rect
    x="-28.970125"
    y="-0.38847858"
    transform="rotate(-135)"
    width="3.4837892"
    height="0.77418613"
    style="stroke-width:0.0483866" />
  <rect
    x="20.516129"
    y="11.612904"
    width="3.483871"
    height="0.77419353"
    style="stroke-width:0.0483871" />
  <rect
    x="16.583359"
    y="-12.000285"
    transform="rotate(45)"
    width="0.77418613"
    height="3.4837892"
    style="stroke-width:0.0483866" />
</svg>
