<svg
  class="wordmark__svg"
  viewBox="0 0 117.47175 23.615999"
  xmlns="http://www.w3.org/2000/svg"
>
  <path
    class="wordmark__svg-path"
    d="M 12.384,11.52 C 13.984,10.752 15.2,8.864 15.2,6.688 15.2,3.488 12.768,1.152 9.536,1.152 H 0 v 22.08 h 10.304 c 3.456,0 6.08,-2.528 6.08,-5.952 0,-2.752 -1.632,-5.088 -4,-5.76 z M 8.864,3.808 c 1.92,0 3.328,1.44 3.328,3.36 0,1.92 -1.504,3.36 -3.328,3.36 H 2.848 V 3.808 Z M 9.632,20.576 H 2.848 v -7.52 h 6.784 c 2.144,0 3.744,1.6 3.744,3.744 0,2.144 -1.6,3.776 -3.744,3.776 z"
  />
  <path
    class="wordmark__svg-path"
    d="m 26.78399,23.616 c 4.448,0 7.392,-2.72 7.392,-6.848 V 6.912 h -2.752 v 9.472 c 0,2.752 -1.856,4.576 -4.64,4.576 -2.784,0 -4.64,-1.824 -4.64,-4.576 V 6.912 h -2.752 v 9.856 c 0,4.128 2.944,6.848 7.392,6.848 z"
  />
  <path
    class="wordmark__svg-path"
    d="m 39.96796,3.648 c 1.024,0 1.824,-0.8 1.824,-1.824 0,-1.056 -0.8,-1.824 -1.824,-1.824 -1.056,0 -1.856,0.768 -1.856,1.824 0,1.024 0.8,1.824 1.856,1.824 z m -1.376,19.584 h 2.752 V 6.912 h -2.752 z"
  />
  <path
    class="wordmark__svg-path"
    d="m 45.98393,23.232 h 2.752 V 0.192 h -2.752 z"
  />
  <path
    class="wordmark__svg-path"
    d="m 66.8799,0.192 v 9.664 c -1.376,-2.048 -3.616,-3.328 -6.336,-3.328 -4.672,0 -8.16,3.68 -8.16,8.544 0,4.864 3.488,8.544 8.16,8.544 2.72,0 4.96,-1.28 6.336,-3.328 v 2.944 h 2.752 V 0.192 Z m -5.824,20.768 c -3.36,0 -5.856,-2.528 -5.856,-5.888 0,-3.36 2.496,-5.888 5.856,-5.888 3.328,0 5.824,2.528 5.824,5.888 0,3.36 -2.496,5.888 -5.824,5.888 z"
  />
  <path
    class="wordmark__svg-path"
    d="m 90.33588,15.072 c 0,-4.896 -3.648,-8.544 -8.512,-8.544 -4.896,0 -8.576,3.648 -8.576,8.48 0,4.896 3.808,8.608 8.928,8.608 3.168,0 5.856,-1.376 7.488,-3.552 l -1.888,-1.632 c -1.056,1.504 -3.104,2.656 -5.504,2.656 -3.168,0 -5.504,-1.952 -6.048,-4.8 h 14.048 c 0.032,-0.384 0.064,-0.832 0.064,-1.216 z m -8.544,-6.016 c 2.88,0 5.12,1.92 5.632,4.736 h -11.232 c 0.512,-2.784 2.752,-4.736 5.6,-4.736 z"
  />
  <path
    class="wordmark__svg-path"
    d="m 102.17582,6.656 c -2.432,0 -4.352,1.12 -5.568,3.072 V 6.912 h -2.752 v 16.32 h 2.752 v -8.16 c 0,-3.392 2.112,-5.568 5.568,-5.568 h 0.544 V 6.656 Z"
  />
  <path
    class="wordmark__svg-path"
    d="m 110.87975,23.616 c 3.68,0 6.592,-1.824 6.592,-5.056 0,-3.392 -3.136,-4.192 -5.824,-4.832 -2.176,-0.512 -4.032,-0.96 -4.032,-2.56 0,-1.408 1.568,-2.144 3.456,-2.144 1.792,0 3.328,0.704 4.416,1.76 l 1.536,-2.016 c -1.376,-1.248 -3.392,-2.24 -5.984,-2.24 -3.36,0 -6.24,1.632 -6.24,4.8 0,3.424 3.168,4.256 5.856,4.928 2.144,0.512 3.968,0.992 3.968,2.56 0,1.472 -1.632,2.304 -3.776,2.304 -2.112,0 -3.84,-0.8 -5.056,-2.048 l -1.536,1.984 c 1.504,1.44 3.744,2.56 6.624,2.56 z"
  />
</svg>