<svg
  id="cookie"
  width="48"
  height="48"
  viewBox="0 0 48 48"
  xmlns="http://www.w3.org/2000/svg"
>
  <g
    fill="none"
    fill-rule="evenodd"
  >
    <path
      fill="#B4814B"
      d="M45.59 25.637c-2.757 0-4.992-2.252-4.992-5.029 0-.874.222-1.697.613-2.414-.588.185-1.213.285-1.861.285-3.447 0-6.24-2.815-6.24-6.285 0-.129.01-.254.018-.38-.663.241-1.375.38-2.12.38-3.447 0-6.24-2.814-6.24-6.286 0-.715.125-1.397.344-2.036-.37.08-.755.126-1.15.126-2.043 0-3.82-1.147-4.732-2.837C8.903 3.371 1.153 12.606 1.153 23.666c0 12.71 10.23 23.013 22.849 23.013 12.008 0 21.846-9.334 22.77-21.19-.38.093-.774.148-1.181.148"
      transform="translate(-106 -848) translate(106 848)"
    />
    <path
      fill="#513A2B"
      d="M25.113 28.277c0 2.974-2.393 5.384-5.346 5.384-2.953 0-5.346-2.41-5.346-5.384s2.393-5.384 5.346-5.384c2.953 0 5.346 2.41 5.346 5.384"
      transform="translate(-106 -848) translate(106 848)"
    />
    <path
      fill="#2E2E31"
      d="M19.767 24.054c-2.312 0-4.192 1.895-4.192 4.223s1.88 4.222 4.192 4.222c2.312 0 4.193-1.894 4.193-4.222 0-2.328-1.88-4.223-4.193-4.223m0 10.768c-3.583 0-6.498-2.936-6.498-6.545 0-3.61 2.915-6.545 6.498-6.545s6.499 2.936 6.499 6.545c0 3.61-2.916 6.545-6.499 6.545"
      transform="translate(-106 -848) translate(106 848)"
    />
    <path
      fill="#513A2B"
      d="M1.155 23.761c.644.519 1.45.842 2.339.842 2.08 0 3.766-1.699 3.766-3.794 0-2.095-1.686-3.793-3.766-3.793-.515 0-1.004.106-1.45.294-.577 2.02-.891 4.15-.891 6.357l.002.094M20.13 11.402c0 1.63-1.313 2.952-2.932 2.952s-2.931-1.322-2.931-2.952 1.312-2.952 2.931-2.952 2.931 1.321 2.931 2.952"
      transform="translate(-106 -848) translate(106 848)"
    />
    <path
      fill="#2E2E31"
      d="M17.198 9.611c-.98 0-1.778.804-1.778 1.79 0 .988.798 1.792 1.778 1.792s1.778-.804 1.778-1.791c0-.987-.798-1.79-1.778-1.79m0 5.903c-2.252 0-4.084-1.845-4.084-4.113 0-2.268 1.832-4.113 4.084-4.113 2.253 0 4.084 1.845 4.084 4.113 0 2.268-1.831 4.113-4.084 4.113"
      transform="translate(-106 -848) translate(106 848)"
    />
    <path
      fill="#513A2B"
      d="M38.633 31.458c0 1.63-1.312 2.952-2.931 2.952s-2.931-1.321-2.931-2.952c0-1.63 1.312-2.952 2.931-2.952s2.931 1.322 2.931 2.952"
      transform="translate(-106 -848) translate(106 848)"/>
    <path
      fill="#2E2E31"
      d="M35.702 29.668c-.98 0-1.778.803-1.778 1.79s.798 1.791 1.778 1.791 1.778-.804 1.778-1.79c0-.988-.798-1.791-1.778-1.791m0 5.904c-2.252 0-4.084-1.845-4.084-4.114 0-2.268 1.832-4.113 4.084-4.113s4.083 1.845 4.083 4.113c0 2.269-1.83 4.114-4.083 4.114"
      transform="translate(-106 -848) translate(106 848)"
    />
    <path
      fill="#513A2B"
      d="M24.001 46.678c.664 0 1.32-.033 1.97-.089.036-.232.061-.469.061-.712 0-2.434-1.96-4.407-4.376-4.407-2.346 0-4.255 1.862-4.365 4.198 2.122.656 4.375 1.01 6.71 1.01"
      transform="translate(-106 -848) translate(106 848)"
    />
    <path
      fill="#010202"
      d="M45.59 25.637c-.28 0-.553-.029-.82-.074-3.732 9.205-12.7 15.696-23.183 15.696-7.281 0-13.835-3.132-18.411-8.129C6.759 41.118 14.733 46.68 24.002 46.68c12.008 0 21.846-9.334 22.77-21.19-.38.093-.774.148-1.181.148"
      opacity=".2"
      transform="translate(-106 -848) translate(106 848)"
    />
    <path
      fill="#2E2E31"
      d="M27.152 45.28c-.297-2.79-2.647-4.97-5.496-4.97-2.442 0-4.517 1.593-5.243 3.825C8.761 41.248 3.15 34.13 2.397 25.621c.358.084.723.143 1.097.143 2.712 0 4.919-2.222 4.919-4.955 0-2.639-2.06-4.796-4.645-4.94 2.493-6.504 7.99-11.634 14.93-13.392 1.162 1.591 2.978 2.582 4.955 2.675-.026.252-.04.504-.04.756 0 4.106 3.318 7.447 7.395 7.447.343 0 .686-.025 1.027-.075.532 3.648 3.697 6.424 7.486 6.358-.051.32-.077.645-.077.97 0 3.372 2.691 6.123 6.024 6.19-1.37 9.553-8.948 17.082-18.316 18.482M24 45.517c-.42 0-.84-.015-1.257-.04-.13-.007-.257-.02-.387-.029-.29-.022-.582-.049-.872-.083-.145-.017-.29-.035-.434-.055-.283-.04-.562-.084-.842-.134-.136-.024-.272-.047-.408-.073-.342-.068-.683-.146-1.022-.23-.056-.014-.114-.025-.17-.04.43-1.286 1.634-2.201 3.047-2.201 1.65 0 3.013 1.254 3.2 2.865-.284.012-.568.02-.855.02M3.494 18.177c1.44 0 2.613 1.18 2.613 2.632 0 1.451-1.172 2.632-2.613 2.632-.466 0-.857-.129-1.166-.29.01-.44.02-.88.056-1.313l.015-.132c.047-.52.114-1.036.198-1.547l.052-.31c.097-.547.21-1.089.348-1.623.163-.032.33-.049.497-.049m44.427 7.403c.03-.37-.12-.734-.402-.975-.28-.24-.66-.331-1.02-.244-.31.076-.615.114-.908.114-2.118 0-3.84-1.734-3.84-3.867 0-.648.162-1.289.47-1.855.227-.415.18-.927-.118-1.293-.298-.367-.785-.515-1.235-.374-.49.154-1.001.232-1.518.232-2.805 0-5.088-2.3-5.088-5.125 0-.07.006-.138.01-.206l.007-.105c.023-.39-.15-.765-.46-1-.312-.233-.719-.293-1.083-.161-.567.207-1.148.311-1.728.311-2.805 0-5.088-2.298-5.088-5.124 0-.555.094-1.113.282-1.657.135-.396.048-.837-.228-1.15-.277-.315-.7-.453-1.108-.364-1.886.415-3.739-.492-4.622-2.13-.243-.451-.75-.688-1.253-.582C10.261 1.894 3.434 8.54.984 16.87c-.016.04-.037.078-.049.119-.033.116-.055.234-.087.351-.103.38-.2.762-.284 1.148-.034.155-.062.31-.092.465-.074.364-.138.73-.194 1.1-.018.118-.039.236-.055.355-.064.47-.112.944-.148 1.421-.01.112-.016.225-.022.337-.032.498-.053.997-.053 1.5l.003.1v.003c.045 10.808 7.167 19.964 16.932 23 .006.002.011.007.018.01.07.02.142.035.212.056.424.128.854.241 1.287.345.136.033.272.066.409.095.508.113 1.022.213 1.542.292.049.008.097.012.146.019.478.07.96.122 1.446.163.136.01.27.022.407.031.529.035 1.062.06 1.599.06.343 0 .69-.01 1.045-.026.262-.011.52-.032.779-.052.082-.006.16-.008.244-.016l.009-.002C37.592 46.728 47.004 37.36 47.92 25.58"
      transform="translate(-106 -848) translate(106 848)"
    />
  </g>
</svg>
