<svg
   width="210px"
   height="297px"
   viewBox="0 0 210 297"
  >
  <g
     id="g1081">
    <path
       d="M 134.78557,105.965 V 91.339148 h 8.90451 8.9045 V 105.965 120.59085 h -8.9045 -8.90451 z"
       id="path2388" />
    <path
       d="M 88.893126,105.965 V 91.339148 H 109.0995 129.30588 V 105.965 120.59085 H 109.0995 88.893126 Z"
       id="path2386" />
    <path
       d="M 64.234499,105.965 V 91.339148 h 8.904504 8.904505 V 105.965 120.59085 h -8.904505 -8.904504 z"
       id="path2384" />
    <path
       d="m 111.49687,134.53643 v -8.5034 h 20.54885 20.54886 v 8.5034 8.5034 h -20.54886 -20.54885 z"
       id="path2382" />
    <path
       d="m 64.234499,134.53643 v -8.5034 h 20.548856 20.548855 v 8.5034 8.5034 H 84.783355 64.234499 Z"
       id="path2380" />
    <path
       d="m 134.78557,163.10786 v -14.62585 h 8.90451 8.9045 v 14.62585 14.62585 h -8.9045 -8.90451 z"
       id="path2378" />
    <path
       d="m 88.893126,163.10786 v -14.62585 h 20.206374 20.20638 v 14.62585 14.62585 H 109.0995 88.893126 Z"
       id="path2376" />
    <path
       d="m 64.234499,163.10786 v -14.62585 h 8.904504 8.904505 v 14.62585 14.62585 h -8.904505 -8.904504 z"
       id="path1079" />
  </g>
</svg>
