<svg xmlns="http://www.w3.org/2000/svg" viewBox="0 0 24 24" role="img" aria-hidden="true">
  <title>award icon</title>
  <g>
    <path d="M 12.932375,7.0526251 11.989975,4 11.067663,7.0315876 H 8.0000001 L 10.486225,8.9263001 9.5238251,12 12.010013,10.105275 14.49625,12 13.51375,8.9473751 16,7.0526251 Z" />
    <path fill-rule="evenodd" clip-rule="evenodd" d="M 4.469275,0 H 19.53075 V 1.4897625 H 24 v 5.2960876 c 0,1.4046 -0.558,2.7516875 -1.551125,3.7448999 C 21.639,11.340525 20.594,11.860988 19.474375,12.025613 19.30975,13.14525 18.789375,14.19025 17.9795,15 c -0.973875,0.973875 -2.288,1.529375 -3.662875,1.550625 v 2.15325 c 0,0.175875 0.06975,0.3445 0.194125,0.46875 0.124375,0.124375 0.293,0.19425 0.46875,0.19425 0.812,0 1.590625,0.3225 2.16475,0.896625 0.574125,0.574125 0.89675,1.352875 0.89675,2.16475 V 24 H 5.9590375 v -1.57175 c 0,-0.811875 0.3225626,-1.590625 0.8966876,-2.16475 0.574125,-0.574125 1.3528,-0.896625 2.1647625,-0.896625 0.175825,0 0.34445,-0.06987 0.4687625,-0.19425 0.124325,-0.12425 0.194175,-0.292875 0.194175,-0.46875 v -2.15325 C 8.3084626,16.529375 6.9943376,15.973875 6.0204625,15 5.210675,14.19025 4.690225,13.14525 4.5256,12.025613 3.4059625,11.860988 2.3609625,11.340525 1.5511875,10.53075 0.55797375,9.5375376 0,8.1904501 0,6.7858501 V 1.4897625 H 4.469275 Z M 6.1229,1.653625 v 9.6015 c 0,0.966038 0.3837626,1.8925 1.0668501,2.575625 0.6831,0.683125 1.609575,1.066875 2.5756125,1.066875 H 11.33705 v 3.80625 c 0,0.614375 -0.244062,1.203625 -0.6785,1.638125 -0.43445,0.434375 -1.0236749,0.6785 -1.6380624,0.6785 -0.3733625,0 -0.73145,0.14825 -0.995475,0.412375 -0.24465,0.244625 -0.38995,0.57 -0.4099625,0.9135 H 16.385 c -0.02,-0.3435 -0.165375,-0.668875 -0.41,-0.9135 C 15.711,21.16875 15.352875,21.0205 14.9795,21.0205 c -0.614375,0 -1.203625,-0.244125 -1.638,-0.6785 C 12.907,19.9075 12.663,19.31825 12.663,18.703875 v -3.80625 h 1.571625 c 0.966,0 1.8925,-0.38375 2.575625,-1.066875 0.683125,-0.683125 1.066875,-1.609587 1.066875,-2.575625 v -9.6015 z M 4.469275,3.1433875 h -2.81565 v 3.6424626 c 0,0.9660375 0.3837625,1.8925125 1.06685,2.5756125 0.484675,0.4846625 1.091875,0.8186504 1.7488,0.9717754 z M 19.53075,10.333238 V 3.1433875 h 2.815625 v 3.6424626 c 0,0.9660375 -0.38375,1.8925125 -1.066875,2.5756125 -0.484625,0.4846625 -1.091875,0.8186504 -1.74875,0.9717754 z" />
  </g>
</svg>