<svg xmlns="http://www.w3.org/2000/svg" viewBox="0 0 24 24">
  <title>CodePen icon</title>
  <path d="M 12 0 C 11.803571 -3.7007434e-17 11.611328 0.057756708 11.423828 0.17382812 L 0.45507812 7.4863281 C 0.15150672 7.6916853 -1.4802974e-16 7.9776786 0 8.34375 L 0 15.65625 C -3.7007434e-17 16.022321 0.15150672 16.308315 0.45507812 16.513672 L 11.423828 23.826172 C 11.611328 23.942243 11.803571 24 12 24 C 12.196429 24 12.388672 23.942243 12.576172 23.826172 L 23.544922 16.513672 C 23.848493 16.308315 24 16.022321 24 15.65625 L 24 8.34375 C 24 7.9776786 23.848493 7.6916853 23.544922 7.4863281 L 12.576172 0.17382812 C 12.388672 0.057756708 12.196429 -7.4014868e-17 12 0 z M 10.96875 2.9589844 L 10.96875 7.7675781 L 6.4960938 10.753906 L 2.8925781 8.34375 L 10.96875 2.9589844 z M 13.03125 2.9589844 L 21.107422 8.34375 L 17.503906 10.753906 L 13.03125 7.7675781 L 13.03125 2.9589844 z M 12 9.5625 L 15.642578 12 L 12 14.4375 L 8.3574219 12 L 12 9.5625 z M 2.0625 10.271484 L 4.6464844 12 L 2.0625 13.728516 L 2.0625 10.271484 z M 21.9375 10.271484 L 21.9375 13.728516 L 19.353516 12 L 21.9375 10.271484 z M 6.4960938 13.246094 L 10.96875 16.232422 L 10.96875 21.041016 L 2.8925781 15.65625 L 6.4960938 13.246094 z M 17.503906 13.246094 L 21.107422 15.65625 L 13.03125 21.041016 L 13.03125 16.232422 L 17.503906 13.246094 z " />
</svg>