<svg xmlns="http://www.w3.org/2000/svg" viewBox="0 0 24 24">
  <title>GitHub icon</title>
  <path d="M 12,0 C 5.37,0 0,5.5094531 0,12.304753 c 0,5.437163 3.438,10.048369 8.205,11.674134 0.6,0.115357 0.8205,-0.264552 0.8205,-0.592166 0,-0.292238 -0.0105,-1.065899 -0.015,-2.091808 C 5.6715,22.037812 4.968,19.644538 4.968,19.644538 4.422,18.223339 3.633,17.844968 3.633,17.844968 2.5455,17.082073 3.717,17.097454 3.717,17.097454 c 1.2045,0.08613 1.8375,1.26739 1.8375,1.26739 1.071,1.881089 2.8095,1.338142 3.495,1.022832 0.108,-0.795194 0.417,-1.338142 0.7605,-1.64576 -2.6655,-0.307619 -5.466,-1.365828 -5.466,-6.080086 0,-1.342757 0.465,-2.4409558 1.2345,-3.3022885 -0.135,-0.310695 -0.54,-1.5611655 0.105,-3.2561452 0,0 1.005,-0.3306903 3.3,1.2612371 0.96,-0.2737807 1.98,-0.409133 3,-0.4152854 1.02,0.00615 2.04,0.1415047 3,0.4152854 2.28,-1.5919274 3.285,-1.2612371 3.285,-1.2612371 0.645,1.6949797 0.24,2.9454502 0.12,3.2561452 0.765,0.8613327 1.23,1.9595315 1.23,3.3022885 0,4.726563 -2.805,5.767853 -5.475,6.070857 0.42,0.369143 0.81,1.122809 0.81,2.276379 0,1.645761 -0.015,2.968522 -0.015,3.368426 0,0.323 0.21,0.707524 0.825,0.584476 C 20.565,22.348507 24,17.734225 24,12.304753 24,5.5094531 18.627,0 12,0"/>
</svg>