<svg xmlns="http://www.w3.org/2000/svg" viewBox="0 0 24 24">
  <title>linkedin icon</title>
  <rect x="0.61849976" y="7.0660033" width="4.6762981" height="14.966028" />
  <path d="M 2.85826,0 C 1.13393,0 0,1.11519 0,2.59586 0,4.04842 1.09645,5.19172 2.79266,5.19172 h 0.0375 c 1.76181,0 2.85825,-1.15267 2.84888,-2.59586 C 5.64154,1.11519 4.5826,0 2.85827,0 Z" />
  <path d="m 18.06794,6.92542 c -2.6802,0 -4.35767,1.46193 -4.66692,2.49278 V 7.06599 H 8.14369 c 0.0656,1.24639 0,14.96603 0,14.96603 h 5.25733 v -8.08747 c 0,-0.45919 -0.0188,-0.90902 0.11245,-1.22764 0.35611,-0.89965 1.13393,-1.83678 2.53026,-1.83678 1.82741,0 2.65209,1.38695 2.65209,3.41116 v 7.74073 H 24 V 13.71027 C 24,9.08083 21.39477,6.92542 18.06794,6.92542 Z" />
</svg>