<svg xmlns="http://www.w3.org/2000/svg" viewBox="0 0 24 24">
  <title>paper clip icon</title>
  <path d="m 1.6809363,9.9177307 c -0.022157,0 -0.044474,-4.796e-4 -0.066823,-0.00137 C 1.1991431,9.8990908 0.80326,9.7222521 0.49939365,9.4183556 0.19552729,9.1144911 0.01868756,8.7186103 0.00139045,8.303674 -0.01616243,7.8812243 0.13295717,7.4897877 0.4212849,7.2014297 L 7.0844755,0.53827865 C 7.4528943,0.16986206 7.9540308,-0.02069273 8.4943336,0.00178379 9.0275065,0.02394058 9.5364443,0.25148729 9.9274036,0.64241236 10.318363,1.0334014 10.545943,1.5423361 10.568036,2.0755059 10.590513,2.6161891 10.399989,3.116875 10.031506,3.4853555 L 5.0104214,8.5064742 c -0.093615,0.093583 -0.2454207,0.093615 -0.339132,0 -0.093615,-0.093679 -0.093615,-0.2454832 0,-0.3391619 L 9.692406,3.1461616 C 9.9649073,2.8736938 10.105746,2.5005134 10.088865,2.0953926 10.071695,1.6827584 9.8938965,1.2871654 9.5882397,0.98147839 9.2826148,0.67582339 8.8870195,0.49808949 8.4743828,0.48092037 8.0692916,0.46387915 7.6960449,0.60484493 7.4236075,0.87734467 L 0.76041689,7.5405597 C 0.35769166,7.9432186 0.39279743,8.6335001 0.83852564,9.0792256 1.0570894,9.2978201 1.3395982,9.4249419 1.6340327,9.4371553 1.9209856,9.4483136 2.1848863,9.3497431 2.3772008,9.1573339 L 7.794648,3.7399828 C 8.0319477,3.5026845 8.0085758,3.0932155 7.7425649,2.8272061 7.6110621,2.6956722 7.4415761,2.6192265 7.2654077,2.6119368 7.0963054,2.6051587 6.9420062,2.6629326 6.8297828,2.7751872 L 3.0545056,6.55057 c -0.093679,0.093583 -0.2454847,0.093615 -0.339132,0 -0.093679,-0.093679 -0.093679,-0.2454832 0,-0.33913 L 6.4906509,2.4360573 C 6.6988556,2.2278538 6.980533,2.1195317 7.2853266,2.1327682 7.5820631,2.1450775 7.8648916,2.2712721 8.0816329,2.4881081 8.5346828,2.9410594 8.5580227,3.6547766 8.13378,4.0791127 L 2.7163327,9.4964959 C 2.4432559,9.7695391 2.0777146,9.9177307 1.6809363,9.9177307 Z" />
</svg>