<svg xmlns="http://www.w3.org/2000/svg" viewBox="0 0 24 24">
  <path d="m 23.500128,7.8843848 -1.772032,-1.772062 c -2.4e-4,-2.402e-4 -3.6e-4,-4.804e-4 -6e-4,-6.606e-4 -2.41e-4,-1.801e-4 -4.81e-4,-3.603e-4 -6.61e-4,-5.404e-4 L 19.954742,4.3389998 C 19.814044,4.1982436 19.623143,4.1191584 19.423955,4.1191584 c -0.199188,0 -0.390028,0.079085 -0.530787,0.2198414 L 18.01703,5.2151226 V 0.75061927 C 18.01703,0.33609729 17.680867,0 17.266398,0 H 0.75063205 C 0.33610301,0 0,0.33609729 0,0.75061927 V 23.249381 C 0,23.663903 0.33610301,24 0.75063205,24 H 17.266458 c 0.414469,0 0.750632,-0.336097 0.750632,-0.750619 v -8.820737 l 5.483038,-5.4827635 c 0.293166,-0.2931018 0.293166,-0.7683339 0,-1.0614957 z M 16.515826,22.498762 H 1.5012641 V 1.5012385 H 16.515826 v 5.2151226 l -6.202862,6.2026369 c -0.103648,0.103766 -0.174627,0.235515 -0.204292,0.379033 l -0.9223171,4.467686 c -0.051102,0.247464 0.025761,0.503996 0.2043522,0.682523 0.1421993,0.142197 0.333761,0.219842 0.5307869,0.219842 0.050502,0 0.101366,-0.0051 0.151747,-0.01549 l 4.467522,-0.922481 c 0.143701,-0.02961 0.275392,-0.100703 0.37904,-0.204349 l 1.595963,-1.595877 v 6.56888 z m -5.218334,-7.533816 1.576448,1.576481 -1.986593,0.410198 z m 3.091584,0.968539 -2.483692,-2.483649 7.518631,-7.5185025 0.711119,0.7111667 -4.585461,4.5855028 c -0.293227,0.293162 -0.293227,0.768394 0,1.061556 0.146463,0.146461 0.338685,0.219841 0.530787,0.219841 0.192102,0 0.384143,-0.07338 0.530787,-0.219841 l 4.585521,-4.585443 0.711118,0.7111067 z" />
</svg>