<svg xmlns="http://www.w3.org/2000/svg" viewBox="0 0 24 24">
  <title>twitter icon</title>
  <path d="M 25,4.9919786 C 24.000000,5.3877005 23.395722,5.3983957 22.625668,5.013369 23.620321,4.4144385 23.673797,3.986631 24.037433,2.8529412 23.096257,3.4090909 22.048128,3.815508 20.935829,4.0294118 20.058824,3.0882353 18.796791,2.5 17.406417,2.5 c -2.673797,0 -4.86631,2.1818182 -4.86631,4.855615 0,0.3850267 0.03209,0.7486631 0.106952,1.1122994 C 8.6149733,8.2540107 5.0320856,6.328877 2.6363636,3.3877005 2.2085561,4.1042781 1.9946524,4.9385027 1.9946524,5.8475936 c 0,1.6684492 0.855615,3.1550802 2.1390374,4.0320855 C 3.342246,9.8475936 2.5935829,9.6336898 1.9411765,9.2700535 v 0.064171 c 0,2.3529415 1.6684492,4.3101605 3.8930481,4.7486635 -0.7165775,0.213903 -1.4652406,0.213903 -2.2032086,0.08556 0.6203209,1.925134 2.4171123,3.336899 4.5454546,3.379679 C 6.1122995,19.184492 3.5347594,19.868984 1,19.569519 c 2.1390374,1.390374 4.7058824,2.181818 7.4545455,2.181818 8.9304815,0 13.8181815,-7.40107 13.8181815,-13.8288771 0,-0.2139038 0,-0.4278075 -0.02139,-0.6417112 0.962567,-0.6737968 2.096257,-1.3048129 2.737968,-2.2887701 z"/>
</svg>
