<?xml version="1.0" encoding="utf-8"?>
<!-- Generator: Adobe Illustrator 23.0.1, SVG Export Plug-In . SVG Version: 6.00 Build 0)  -->
<svg version="1.1" id="Layer_1" xmlns="http://www.w3.org/2000/svg" xmlns:xlink="http://www.w3.org/1999/xlink" x="0px" y="0px"
	 viewBox="0 0 330.3 29.3" style="enable-background:new 0 0 330.3 29.3;" xml:space="preserve">
<style type="text/css">
	.st0{display:none;}
	.st1{display:inline;fill:#27AAE1;}
	.st2{display:inline;fill:#2D7DAF;}
	.st3{fill:#D1D2D4;}
	.st4{fill:#FFFFFF;}
	.st5{fill:#F3A745;}
	.st6{fill:#F1BC46;}
	.st7{fill:#939393;}
	.st8{fill:#D95E4C;}
	.st9{fill:#E87D6A;}
</style>
<g id="train">
	<g>
		<path class="st3" d="M1.5,27V6.5c0-2.7,2.2-4.8,4.8-4.8h97.9c2.7,0,4.8,2.2,4.8,4.8V27H1.5L1.5,27z"/>
		<path class="st4" d="M18.3,8.4h-0.4h-4.4c-1.3,0-2.4,1-2.4,2.4v15.7v0.4h0.4h6.4h0.4v-0.4V8.8V8.4L18.3,8.4z M17.9,8.8v17.7h-6.4
			V10.8c0-1,0.8-2,2-2H17.9L17.9,8.8z"/>
		<path class="st5" d="M17.9,8.8h-4.4c-1,0-2,0.8-2,2v15.7h6.4V8.8L17.9,8.8z"/>
		<path class="st6" d="M11.5,10.8v2.5h6.4V8.8h-4.4C12.4,8.8,11.5,9.7,11.5,10.8L11.5,10.8z"/>
		<polygon class="st7" points="17.9,19.5 11.5,19.5 11.5,26.5 17.9,26.5 		"/>
		<path class="st4" d="M23,8.4h-4.4h-0.4v0.4v17.7v0.4h0.4H25h0.4v-0.4V10.8C25.3,9.4,24.3,8.4,23,8.4L23,8.4z M23,8.8
			c1,0,2,0.8,2,2v15.7h-6.4V8.8H23L23,8.8z"/>
		<path class="st5" d="M23,8.8h-4.4v17.7H25V10.8C24.9,9.7,24,8.8,23,8.8L23,8.8z"/>
		<path class="st6" d="M23,8.8h-4.4v4.5H25v-2.5C24.9,9.7,24,8.8,23,8.8L23,8.8z"/>
		<polygon class="st7" points="24.9,19.5 18.6,19.5 18.6,26.5 24.9,26.5 		"/>
		<path class="st4" d="M55.4,8.4H55h-4.4c-1.3,0-2.4,1-2.4,2.4v15.7v0.4h0.4H55h0.4v-0.4V8.8V8.4L55.4,8.4z M55,8.8v17.7h-6.4V10.8
			c0-1,0.8-2,2-2H55L55,8.8z"/>
		<path class="st5" d="M55,8.8h-4.4c-1,0-2,0.8-2,2v15.7H55V8.8L55,8.8z"/>
		<path class="st6" d="M55,13.3V8.8h-4.4c-1,0-2,0.8-2,2v2.5H55L55,13.3z"/>
		<polygon class="st7" points="55,19.5 48.7,19.5 48.7,26.5 55,26.5 		"/>
		<path class="st4" d="M60.1,8.4h-4.4h-0.4v0.4v17.7v0.4h0.4h6.4h0.4v-0.4V10.8C62.5,9.4,61.4,8.4,60.1,8.4L60.1,8.4z M60.1,8.8
			c1,0,2,0.8,2,2v15.7h-6.4V8.8H60.1L60.1,8.8z"/>
		<path class="st5" d="M60.1,8.8h-4.4v17.7h6.4V10.8C62,9.7,61.2,8.8,60.1,8.8L60.1,8.8z"/>
		<path class="st6" d="M62,13.3v-2.5c0-1-0.8-2-2-2h-4.4v4.5H62L62,13.3z"/>
		<polygon class="st7" points="62,19.5 55.7,19.5 55.7,26.5 62,26.5 		"/>
		<path class="st4" d="M92.6,8.4h-0.4h-4.4c-1.3,0-2.4,1-2.4,2.4v15.7v0.4h0.4h6.4h0.4v-0.4V8.8V8.4L92.6,8.4z M92.2,8.8v17.7h-6.4
			V10.8c0-1,0.8-2,2-2H92.2L92.2,8.8z"/>
		<path class="st5" d="M92.2,8.8h-4.4c-1,0-2,0.8-2,2v15.7h6.4V8.8L92.2,8.8z"/>
		<path class="st6" d="M92.2,13.3V8.8h-4.4c-1,0-2,0.8-2,2v2.5H92.2L92.2,13.3z"/>
		<path class="st4" d="M97.2,8.4h-4.4h-0.4v0.4v17.7v0.4h0.4h6.4h0.4v-0.4V10.8C99.6,9.4,98.5,8.4,97.2,8.4L97.2,8.4z M97.2,8.8
			c1,0,2,0.8,2,2v15.7h-6.4V8.8H97.2L97.2,8.8z"/>
		<path class="st5" d="M97.2,8.8h-4.4v17.7h6.4V10.8C99.2,9.7,98.3,8.8,97.2,8.8L97.2,8.8z"/>
		<path class="st6" d="M99.2,13.3v-2.5c0-1-0.8-2-2-2h-4.4v4.5H99.2L99.2,13.3z"/>
		<polygon class="st7" points="92.2,19.5 85.8,19.5 85.8,26.5 92.2,26.5 		"/>
		<polygon class="st7" points="99.2,19.5 92.8,19.5 92.8,26.5 99.2,26.5 		"/>
		<path class="st4" d="M44.1,8.4H29.6c-1.3,0-2.4,1-2.4,2.4v6.8c0,1.3,1,2.4,2.4,2.4h14.5c1.3,0,2.4-1,2.4-2.4v-6.8
			C46.4,9.4,45.4,8.4,44.1,8.4L44.1,8.4z M44.1,8.8c1,0,2,0.8,2,2v6.8c0,1-0.8,2-2,2H29.6c-1,0-2-0.8-2-2v-6.8c0-1,0.8-2,2-2H44.1
			L44.1,8.8z"/>
		<path class="st5" d="M44.1,8.8H29.6c-1,0-2,0.8-2,2v6.8c0,1,0.8,2,2,2h14.5c1,0,2-0.8,2-2v-6.8C46,9.7,45.1,8.8,44.1,8.8L44.1,8.8
			z"/>
		<path class="st6" d="M46,13.3v-2.5c0-1-0.8-2-2-2H29.5c-1,0-2,0.8-2,2v2.5H46L46,13.3z"/>
		<path class="st4" d="M81.2,8.4H66.7c-1.3,0-2.4,1-2.4,2.4v6.8c0,1.3,1,2.4,2.4,2.4h14.5c1.3,0,2.4-1,2.4-2.4v-6.8
			C83.6,9.4,82.5,8.4,81.2,8.4L81.2,8.4z M81.2,8.8c1,0,2,0.8,2,2v6.8c0,1-0.8,2-2,2H66.7c-1,0-2-0.8-2-2v-6.8c0-1,0.8-2,2-2H81.2
			L81.2,8.8z"/>
		<path class="st5" d="M81.2,8.8H66.7c-1,0-2,0.8-2,2v6.8c0,1,0.8,2,2,2h14.5c1,0,2-0.8,2-2v-6.8C83.1,9.7,82.3,8.8,81.2,8.8
			L81.2,8.8z"/>
		<path class="st6" d="M83.1,13.3v-2.5c0-1-0.8-2-2-2H66.6c-1,0-2,0.8-2,2v2.5H83.1L83.1,13.3z"/>
		<path class="st5" d="M1.5,19.4H4c1,0,1.9-0.8,1.9-1.9v-6.9c0-1-0.8-1.9-1.9-1.9H1.5V19.4L1.5,19.4z"/>
		<path class="st6" d="M4.1,8.8H1.5v4.5h4.4v-2.7C6,9.6,5.2,8.8,4.1,8.8L4.1,8.8z"/>
		<path class="st4" d="M4.1,8.8c1,0,1.9,0.8,1.9,1.9v6.9c0,1-0.8,1.9-1.9,1.9H1.5v0.4H4c1.3,0,2.3-1,2.3-2.3v-6.9
			c0-1.3-1-2.3-2.3-2.3H1.5v0.4H4.1L4.1,8.8z"/>
		<path class="st5" d="M109.1,8.8h-2.5c-1,0-1.9,0.8-1.9,1.9v6.9c0,1,0.8,1.9,1.9,1.9h2.5V8.8L109.1,8.8z"/>
		<path class="st6" d="M109.1,13.3V8.8h-2.5c-1,0-1.9,0.8-1.9,1.9v2.7h4.4V13.3z"/>
		<path class="st4" d="M106.6,19.4c-1,0-1.9-0.8-1.9-1.9v-6.9c0-1,0.8-1.9,1.9-1.9h2.5V8.3h-2.5c-1.3,0-2.3,1-2.3,2.3v6.9
			c0,1.3,1,2.3,2.3,2.3h2.5v-0.4H106.6L106.6,19.4z"/>
		<path class="st8" d="M104.3,1.7H6.4c-2.7,0-4.8,2.2-4.8,4.8v0.3h107.5V6.5C109.1,3.8,107,1.7,104.3,1.7L104.3,1.7z"/>
		<path class="st4" d="M6.4,1.7c-1.6,0-3,0.8-3.9,2h105.7c-0.9-1.2-2.3-2-3.9-2H6.4L6.4,1.7z"/>
		<polygon class="st4" points="105.9,5 4.7,5 4.7,4.5 105.9,4.5 		"/>
		<polygon class="st4" points="105.9,5.9 4.7,5.9 4.7,5.4 105.9,5.4 		"/>
		<polygon class="st8" points="25.3,21.5 25.3,25.4 48.3,25.4 48.3,21.5 		"/>
		<polygon class="st9" points="47.1,23.1 26.5,23.1 26.5,22.6 47.1,22.6 		"/>
		<polygon class="st9" points="47.1,24.4 26.5,24.4 26.5,23.9 47.1,23.9 		"/>
		<polygon class="st8" points="1.5,21.5 1.5,25.4 11.1,25.4 11.1,21.5 		"/>
		<polygon class="st9" points="10.2,23.1 2.5,23.1 2.5,22.6 10.2,22.6 		"/>
		<polygon class="st9" points="10.2,24.4 2.5,24.4 2.5,23.9 10.2,23.9 		"/>
		<polygon class="st8" points="99.6,21.5 99.6,25.4 109.1,25.4 109.1,21.5 		"/>
		<polygon class="st9" points="108.2,23.1 100.6,23.1 100.6,22.6 108.2,22.6 		"/>
		<polygon class="st9" points="108.2,24.4 100.6,24.4 100.6,23.9 108.2,23.9 		"/>
		<polygon class="st8" points="62.5,21.5 62.5,25.4 85.3,25.4 85.3,21.5 		"/>
		<polygon class="st9" points="84.1,23.1 63.6,23.1 63.6,22.6 84.1,22.6 		"/>
		<polygon class="st9" points="84.1,24.4 63.6,24.4 63.6,23.9 84.1,23.9 		"/>
	</g>
	<g>
		<path class="st3" d="M111.1,27V6.5c0-2.7,2.2-4.8,4.8-4.8h97.9c2.7,0,4.8,2.2,4.8,4.8V27H111.1L111.1,27z"/>
		<path class="st4" d="M127.9,8.4h-0.5H123c-1.3,0-2.4,1-2.4,2.4v15.7v0.4h0.4h6.4h0.4v-0.4V8.8L127.9,8.4L127.9,8.4z M127.4,8.8
			v17.7H121V10.8c0-1,0.8-2,2-2H127.4L127.4,8.8z"/>
		<path class="st5" d="M127.4,8.8H123c-1,0-2,0.8-2,2v15.7h6.4V8.8L127.4,8.8z"/>
		<path class="st6" d="M121.1,10.8v2.5h6.4V8.8h-4.4C121.9,8.8,121.1,9.7,121.1,10.8L121.1,10.8z"/>
		<polygon class="st7" points="127.4,19.5 121.1,19.5 121.1,26.5 127.4,26.5 		"/>
		<path class="st4" d="M132.5,8.4h-4.4h-0.4v0.4v17.7v0.4h0.4h6.4h0.4v-0.4V10.8C134.8,9.4,133.8,8.4,132.5,8.4L132.5,8.4z
			 M132.5,8.8c1,0,2,0.8,2,2v15.7h-6.4V8.8H132.5L132.5,8.8z"/>
		<path class="st5" d="M132.5,8.8h-4.4v17.7h6.4V10.8C134.4,9.7,133.5,8.8,132.5,8.8L132.5,8.8z"/>
		<path class="st6" d="M132.5,8.8h-4.4v4.5h6.4v-2.5C134.4,9.7,133.5,8.8,132.5,8.8L132.5,8.8z"/>
		<polygon class="st7" points="134.4,19.5 128.1,19.5 128.1,26.5 134.4,26.5 		"/>
		<path class="st4" d="M165,8.4h-0.4h-4.4c-1.3,0-2.4,1-2.4,2.4v15.7v0.4h0.4h6.4h0.4v-0.4V8.8V8.4L165,8.4z M164.5,8.8v17.7h-6.4
			V10.8c0-1,0.8-2,2-2H164.5L164.5,8.8z"/>
		<path class="st5" d="M164.5,8.8h-4.4c-1,0-2,0.8-2,2v15.7h6.4V8.8L164.5,8.8z"/>
		<path class="st6" d="M164.5,13.3V8.8h-4.4c-1,0-2,0.8-2,2v2.5H164.5L164.5,13.3z"/>
		<polygon class="st7" points="164.5,19.5 158.2,19.5 158.2,26.5 164.5,26.5 		"/>
		<path class="st4" d="M169.6,8.4h-4.4h-0.4v0.4v17.7v0.4h0.4h6.4h0.4v-0.4V10.8C172,9.4,170.9,8.4,169.6,8.4L169.6,8.4z M169.6,8.8
			c1,0,2,0.8,2,2v15.7h-6.4V8.8H169.6L169.6,8.8z"/>
		<path class="st5" d="M169.6,8.8h-4.4v17.7h6.4V10.8C171.6,9.7,170.7,8.8,169.6,8.8L169.6,8.8z"/>
		<path class="st6" d="M171.6,13.3v-2.5c0-1-0.8-2-2-2h-4.4v4.5H171.6L171.6,13.3z"/>
		<polygon class="st7" points="171.6,19.5 165.2,19.5 165.2,26.5 171.6,26.5 		"/>
		<path class="st4" d="M202.1,8.4h-0.4h-4.4c-1.3,0-2.4,1-2.4,2.4v15.7v0.4h0.4h6.4h0.4v-0.4V8.8V8.4L202.1,8.4z M201.7,8.8v17.7
			h-6.4V10.8c0-1,0.8-2,2-2H201.7L201.7,8.8z"/>
		<path class="st5" d="M201.7,8.8h-4.4c-1,0-2,0.8-2,2v15.7h6.4V8.8L201.7,8.8z"/>
		<path class="st6" d="M201.7,13.3V8.8h-4.4c-1,0-2,0.8-2,2v2.5H201.7L201.7,13.3z"/>
		<path class="st4" d="M206.8,8.4h-4.4H202v0.4v17.7v0.4h0.4h6.4h0.4v-0.4V10.8C209.1,9.4,208,8.4,206.8,8.4L206.8,8.4z M206.8,8.8
			c1,0,2,0.8,2,2v15.7h-6.4V8.8H206.8L206.8,8.8z"/>
		<path class="st5" d="M206.8,8.8h-4.4v17.7h6.4V10.8C208.7,9.7,207.8,8.8,206.8,8.8L206.8,8.8z"/>
		<path class="st6" d="M208.7,13.3v-2.5c0-1-0.8-2-2-2h-4.4v4.5H208.7L208.7,13.3z"/>
		<polygon class="st7" points="201.7,19.5 195.3,19.5 195.3,26.5 201.7,26.5 		"/>
		<polygon class="st7" points="208.7,19.5 202.4,19.5 202.4,26.5 208.7,26.5 		"/>
		<path class="st4" d="M153.6,8.4h-14.5c-1.3,0-2.4,1-2.4,2.4v6.8c0,1.3,1,2.4,2.4,2.4h14.5c1.3,0,2.4-1,2.4-2.4v-6.8
			C155.9,9.4,154.9,8.4,153.6,8.4L153.6,8.4z M153.6,8.8c1,0,2,0.8,2,2v6.8c0,1-0.8,2-2,2h-14.5c-1,0-2-0.8-2-2v-6.8c0-1,0.8-2,2-2
			H153.6L153.6,8.8z"/>
		<path class="st5" d="M153.6,8.8h-14.5c-1,0-2,0.8-2,2v6.8c0,1,0.8,2,2,2h14.5c1,0,2-0.8,2-2v-6.8C155.5,9.7,154.7,8.8,153.6,8.8
			L153.6,8.8z"/>
		<path class="st6" d="M155.5,13.3v-2.5c0-1-0.8-2-2-2H139c-1,0-2,0.8-2,2v2.5H155.5L155.5,13.3z"/>
		<path class="st4" d="M190.7,8.4h-14.5c-1.3,0-2.4,1-2.4,2.4v6.8c0,1.3,1,2.4,2.4,2.4h14.5c1.3,0,2.4-1,2.4-2.4v-6.8
			C193.1,9.4,192,8.4,190.7,8.4L190.7,8.4z M190.7,8.8c1,0,2,0.8,2,2v6.8c0,1-0.8,2-2,2h-14.5c-1,0-2-0.8-2-2v-6.8c0-1,0.8-2,2-2
			H190.7L190.7,8.8z"/>
		<path class="st5" d="M190.7,8.8h-14.5c-1,0-2,0.8-2,2v6.8c0,1,0.8,2,2,2h14.5c1,0,2-0.8,2-2v-6.8C192.7,9.7,191.8,8.8,190.7,8.8
			L190.7,8.8z"/>
		<path class="st6" d="M192.7,13.3v-2.5c0-1-0.8-2-2-2h-14.5c-1,0-2,0.8-2,2v2.5H192.7L192.7,13.3z"/>
		<path class="st5" d="M111.1,19.4h2.5c1,0,1.9-0.8,1.9-1.9v-6.9c0-1-0.8-1.9-1.9-1.9h-2.5V19.4L111.1,19.4z"/>
		<path class="st6" d="M113.6,8.8h-2.5v4.5h4.4v-2.7C115.5,9.6,114.7,8.8,113.6,8.8L113.6,8.8z"/>
		<path class="st4" d="M113.6,8.8c1,0,1.9,0.8,1.9,1.9v6.9c0,1-0.8,1.9-1.9,1.9h-2.5v0.4h2.5c1.3,0,2.3-1,2.3-2.3v-6.9
			c0-1.3-1-2.3-2.3-2.3h-2.5v0.4H113.6L113.6,8.8z"/>
		<path class="st5" d="M218.6,8.8h-2.5c-1,0-1.9,0.8-1.9,1.9v6.9c0,1,0.8,1.9,1.9,1.9h2.5V8.8L218.6,8.8z"/>
		<path class="st6" d="M218.6,13.3V8.8h-2.5c-1,0-1.9,0.8-1.9,1.9v2.7h4.4V13.3z"/>
		<path class="st4" d="M216.1,19.4c-1,0-1.9-0.8-1.9-1.9v-6.9c0-1,0.8-1.9,1.9-1.9h2.5V8.3h-2.5c-1.3,0-2.3,1-2.3,2.3v6.9
			c0,1.3,1,2.3,2.3,2.3h2.5v-0.4H216.1L216.1,19.4z"/>
		<path class="st8" d="M213.8,1.7h-97.9c-2.7,0-4.8,2.2-4.8,4.8v0.3h107.5V6.5C218.6,3.8,216.5,1.7,213.8,1.7L213.8,1.7z"/>
		<path class="st4" d="M115.9,1.7c-1.6,0-3,0.8-3.9,2h105.7c-0.9-1.2-2.3-2-3.9-2H115.9L115.9,1.7z"/>
		<polygon class="st4" points="215.4,5 114.3,5 114.3,4.5 215.4,4.5 		"/>
		<polygon class="st4" points="215.4,5.9 114.3,5.9 114.3,5.4 215.4,5.4 		"/>
		<polygon class="st8" points="134.8,21.5 134.8,25.4 157.8,25.4 157.8,21.5 		"/>
		<polygon class="st9" points="156.6,23.1 136,23.1 136,22.6 156.6,22.6 		"/>
		<polygon class="st9" points="156.6,24.4 136,24.4 136,23.9 156.6,23.9 		"/>
		<polygon class="st8" points="111.1,21.5 111.1,25.4 120.6,25.4 120.6,21.5 		"/>
		<polygon class="st9" points="119.7,23.1 112,23.1 112,22.6 119.7,22.6 		"/>
		<polygon class="st9" points="119.7,24.4 112,24.4 112,23.9 119.7,23.9 		"/>
		<polygon class="st8" points="209.1,21.5 209.1,25.4 218.6,25.4 218.6,21.5 		"/>
		<polygon class="st9" points="217.7,23.1 210.1,23.1 210.1,22.6 217.7,22.6 		"/>
		<polygon class="st9" points="217.7,24.4 210.1,24.4 210.1,23.9 217.7,23.9 		"/>
		<polygon class="st8" points="172,21.5 172,25.4 194.9,25.4 194.9,21.5 		"/>
		<polygon class="st9" points="193.7,23.1 173.2,23.1 173.2,22.6 193.7,22.6 		"/>
		<polygon class="st9" points="193.7,24.4 173.2,24.4 173.2,23.9 193.7,23.9 		"/>
	</g>
	<g>
		<path class="st3" d="M220.9,27V6.5c0-2.7,2.2-4.8,4.8-4.8h97.9c2.7,0,4.8,2.2,4.8,4.8V27H220.9L220.9,27z"/>
		<path class="st4" d="M237.6,8.4h-0.4h-4.4c-1.3,0-2.4,1-2.4,2.4v15.7v0.4h0.4h6.4h0.4v-0.4V8.8V8.4L237.6,8.4z M237.2,8.8v17.7
			h-6.4V10.8c0-1,0.8-2,2-2H237.2L237.2,8.8z"/>
		<path class="st5" d="M237.2,8.8h-4.4c-1,0-2,0.8-2,2v15.7h6.4V8.8L237.2,8.8z"/>
		<path class="st6" d="M230.8,10.8v2.5h6.4V8.8h-4.4C231.7,8.8,230.8,9.7,230.8,10.8L230.8,10.8z"/>
		<polygon class="st7" points="237.2,19.5 230.8,19.5 230.8,26.5 237.2,26.5 		"/>
		<path class="st4" d="M242.2,8.4h-4.4h-0.4v0.4v17.7v0.4h0.4h6.4h0.4v-0.4V10.8C244.6,9.4,243.6,8.4,242.2,8.4L242.2,8.4z
			 M242.2,8.8c1,0,2,0.8,2,2v15.7h-6.4V8.8H242.2L242.2,8.8z"/>
		<path class="st5" d="M242.2,8.8h-4.4v17.7h6.4V10.8C244.2,9.7,243.3,8.8,242.2,8.8L242.2,8.8z"/>
		<path class="st6" d="M242.2,8.8h-4.4v4.5h6.4v-2.5C244.2,9.7,243.3,8.8,242.2,8.8L242.2,8.8z"/>
		<polygon class="st7" points="244.2,19.5 237.8,19.5 237.8,26.5 244.2,26.5 		"/>
		<path class="st4" d="M274.7,8.4h-0.4h-4.4c-1.3,0-2.4,1-2.4,2.4v15.7v0.4h0.4h6.4h0.4v-0.4V8.8V8.4L274.7,8.4z M274.3,8.8v17.7
			h-6.4V10.8c0-1,0.8-2,2-2H274.3L274.3,8.8z"/>
		<path class="st5" d="M274.3,8.8h-4.4c-1,0-2,0.8-2,2v15.7h6.4V8.8L274.3,8.8z"/>
		<path class="st6" d="M274.3,13.3V8.8h-4.4c-1,0-2,0.8-2,2v2.5H274.3L274.3,13.3z"/>
		<polygon class="st7" points="274.3,19.5 267.9,19.5 267.9,26.5 274.3,26.5 		"/>
		<path class="st4" d="M279.4,8.4H275h-0.4v0.4v17.7v0.4h0.4h6.4h0.4v-0.4V10.8C281.8,9.4,280.7,8.4,279.4,8.4L279.4,8.4z
			 M279.4,8.8c1,0,2,0.8,2,2v15.7H275V8.8H279.4L279.4,8.8z"/>
		<path class="st5" d="M279.4,8.8H275v17.7h6.4V10.8C281.3,9.7,280.4,8.8,279.4,8.8L279.4,8.8z"/>
		<path class="st6" d="M281.3,13.3v-2.5c0-1-0.8-2-2-2h-4.4v4.5H281.3L281.3,13.3z"/>
		<polygon class="st7" points="281.3,19.5 275,19.5 275,26.5 281.3,26.5 		"/>
		<path class="st4" d="M311.9,8.4h-0.4h-4.4c-1.3,0-2.4,1-2.4,2.4v15.7v0.4h0.4h6.4h0.4v-0.4V8.8V8.4L311.9,8.4z M311.5,8.8v17.7
			h-6.4V10.8c0-1,0.8-2,2-2H311.5L311.5,8.8z"/>
		<path class="st5" d="M311.5,8.8h-4.4c-1,0-2,0.8-2,2v15.7h6.4V8.8L311.5,8.8z"/>
		<path class="st6" d="M311.5,13.3V8.8h-4.4c-1,0-2,0.8-2,2v2.5H311.5L311.5,13.3z"/>
		<path class="st4" d="M316.5,8.4h-4.4h-0.4v0.4v17.7v0.4h0.4h6.4h0.4v-0.4V10.8C318.9,9.4,317.8,8.4,316.5,8.4L316.5,8.4z
			 M316.5,8.8c1,0,2,0.8,2,2v15.7h-6.4V8.8H316.5L316.5,8.8z"/>
		<path class="st5" d="M316.5,8.8h-4.4v17.7h6.4V10.8C318.4,9.7,317.6,8.8,316.5,8.8L316.5,8.8z"/>
		<path class="st6" d="M318.4,13.3v-2.5c0-1-0.8-2-2-2H312v4.5H318.4L318.4,13.3z"/>
		<polygon class="st7" points="311.5,19.5 305.1,19.5 305.1,26.5 311.5,26.5 		"/>
		<polygon class="st7" points="318.4,19.5 312.1,19.5 312.1,26.5 318.4,26.5 		"/>
		<path class="st4" d="M263.3,8.4h-14.5c-1.3,0-2.4,1-2.4,2.4v6.8c0,1.3,1,2.4,2.4,2.4h14.5c1.3,0,2.4-1,2.4-2.4v-6.8
			C265.7,9.4,264.7,8.4,263.3,8.4L263.3,8.4z M263.3,8.8c1,0,2,0.8,2,2v6.8c0,1-0.8,2-2,2h-14.5c-1,0-2-0.8-2-2v-6.8c0-1,0.8-2,2-2
			H263.3L263.3,8.8z"/>
		<path class="st5" d="M263.3,8.8h-14.5c-1,0-2,0.8-2,2v6.8c0,1,0.8,2,2,2h14.5c1,0,2-0.8,2-2v-6.8C265.3,9.7,264.4,8.8,263.3,8.8
			L263.3,8.8z"/>
		<path class="st6" d="M265.3,13.3v-2.5c0-1-0.8-2-2-2h-14.5c-1,0-2,0.8-2,2v2.5H265.3L265.3,13.3z"/>
		<path class="st4" d="M300.5,8.4H286c-1.3,0-2.4,1-2.4,2.4v6.8c0,1.3,1,2.4,2.4,2.4h14.5c1.3,0,2.4-1,2.4-2.4v-6.8
			C302.9,9.4,301.8,8.4,300.5,8.4L300.5,8.4z M300.5,8.8c1,0,2,0.8,2,2v6.8c0,1-0.8,2-2,2H286c-1,0-2-0.8-2-2v-6.8c0-1,0.8-2,2-2
			H300.5L300.5,8.8z"/>
		<path class="st5" d="M300.5,8.8H286c-1,0-2,0.8-2,2v6.8c0,1,0.8,2,2,2h14.5c1,0,2-0.8,2-2v-6.8C302.4,9.7,301.5,8.8,300.5,8.8
			L300.5,8.8z"/>
		<path class="st6" d="M302.4,13.3v-2.5c0-1-0.8-2-2-2h-14.5c-1,0-2,0.8-2,2v2.5H302.4L302.4,13.3z"/>
		<path class="st5" d="M220.9,19.4h2.5c1,0,1.9-0.8,1.9-1.9v-6.9c0-1-0.8-1.9-1.9-1.9h-2.5V19.4L220.9,19.4z"/>
		<path class="st6" d="M223.4,8.8h-2.5v4.5h4.4v-2.7C225.3,9.6,224.4,8.8,223.4,8.8L223.4,8.8z"/>
		<path class="st4" d="M223.4,8.8c1,0,1.9,0.8,1.9,1.9v6.9c0,1-0.8,1.9-1.9,1.9h-2.5v0.4h2.5c1.3,0,2.3-1,2.3-2.3v-6.9
			c0-1.3-1-2.3-2.3-2.3h-2.5v0.4H223.4L223.4,8.8z"/>
		<path class="st5" d="M328.4,8.8h-2.5c-1,0-1.9,0.8-1.9,1.9v6.9c0,1,0.8,1.9,1.9,1.9h2.5V8.8L328.4,8.8z"/>
		<path class="st6" d="M328.4,13.3V8.8h-2.5c-1,0-1.9,0.8-1.9,1.9v2.7h4.4V13.3z"/>
		<path class="st4" d="M325.9,19.4c-1,0-1.9-0.8-1.9-1.9v-6.9c0-1,0.8-1.9,1.9-1.9h2.5V8.3h-2.5c-1.3,0-2.3,1-2.3,2.3v6.9
			c0,1.3,1,2.3,2.3,2.3h2.5v-0.4H325.9L325.9,19.4z"/>
		<path class="st8" d="M323.6,1.7h-97.9c-2.7,0-4.8,2.2-4.8,4.8v0.3h107.5V6.5C328.4,3.8,326.3,1.7,323.6,1.7L323.6,1.7z"/>
		<path class="st4" d="M225.7,1.7c-1.6,0-3,0.8-3.9,2h105.6c-0.9-1.2-2.3-2-3.9-2H225.7L225.7,1.7z"/>
		<polygon class="st4" points="325.2,5 224,5 224,4.5 325.2,4.5 		"/>
		<polygon class="st4" points="325.2,5.9 224,5.9 224,5.4 325.2,5.4 		"/>
		<polygon class="st8" points="244.6,21.5 244.6,25.4 267.5,25.4 267.5,21.5 		"/>
		<polygon class="st9" points="266.3,23.1 245.8,23.1 245.8,22.6 266.3,22.6 		"/>
		<polygon class="st9" points="266.3,24.4 245.8,24.4 245.8,23.9 266.3,23.9 		"/>
		<polygon class="st8" points="220.9,21.5 220.9,25.4 230.4,25.4 230.4,21.5 		"/>
		<polygon class="st9" points="229.5,23.1 221.8,23.1 221.8,22.6 229.5,22.6 		"/>
		<polygon class="st9" points="229.5,24.4 221.8,24.4 221.8,23.9 229.5,23.9 		"/>
		<polygon class="st8" points="318.9,21.5 318.9,25.4 328.4,25.4 328.4,21.5 		"/>
		<polygon class="st9" points="327.5,23.1 319.8,23.1 319.8,22.6 327.5,22.6 		"/>
		<polygon class="st9" points="327.5,24.4 319.8,24.4 319.8,23.9 327.5,23.9 		"/>
		<polygon class="st8" points="281.8,21.5 281.8,25.4 304.6,25.4 304.6,21.5 		"/>
		<polygon class="st9" points="303.5,23.1 282.9,23.1 282.9,22.6 303.5,22.6 		"/>
		<polygon class="st9" points="303.5,24.4 282.9,24.4 282.9,23.9 303.5,23.9 		"/>
	</g>
</g>
</svg>
