<svg xmlns="http://www.w3.org/2000/svg" viewBox="0 0 24 24" role="img" aria-hidden="true"><title>alarm clock icon</title><g><path d="M 21.611019,13.150051 C 21.610269,8.0616042 17.655798,3.9095113 12.652474,3.5725815 V 2.207472 H 11.347129 V 3.5726284 C 6.3446021,3.9099332 2.3899422,8.0623073 2.3891922,13.150051 c 7.5e-4,3.081492 1.4549199,5.815929 3.7094623,7.575108 L 4.8148713,22.90489 6.4448185,23.99935 8.040079,21.900195 c 1.2082224,0.548238 2.546754,0.861261 3.960097,0.861261 1.376313,0 2.682455,-0.294555 3.866021,-0.815747 l 1.559777,2.053641 1.632291,-1.09446 -1.246753,-2.112654 c 2.305214,-1.756039 3.798757,-4.520615 3.799507,-7.642185 z m -9.345583,6.513741 h -0.482708 -0.226682 v 0.836982 C 9.8146791,20.397089 8.2457618,19.694261 7.0352425,18.588974 L 7.651541,17.97291 7.3099238,17.631386 6.6875317,18.253966 C 5.5517764,17.070774 4.8092932,15.520653 4.6600467,13.791567 h 0.925057 v -0.98693 H 4.645047 C 4.7279201,11.023943 5.4355758,9.4182295 6.5614408,8.1853045 L 7.2764088,8.9004601 7.6179793,8.5588429 6.8964958,7.8375469 C 8.1019995,6.6806044 9.6890101,5.9342309 11.457376,5.8054681 v 1.0281797 h 0.277541 0.482707 0.226683 V 5.8004526 c 1.790725,0.1067781 3.400844,0.8454182 4.624488,2.0047043 l -0.720359,0.7201712 0.341618,0.3415702 0.717077,-0.7170774 c 1.123193,1.2147849 1.838162,2.7977171 1.943206,4.5560521 h -0.935041 v 0.986931 h 0.930072 c -0.127778,1.751819 -0.862011,3.324722 -2.000064,4.526006 l -0.621267,-0.621455 -0.341523,0.341195 0.618361,0.618361 c -1.192379,1.102944 -2.73875,1.813459 -4.457758,1.9388 v -0.831965 h -0.277681 z" /><path d="M 3.8156129,0.53430708 C 1.921906,1.6306883 1.2757957,4.0544924 2.3730207,5.9485275 L 9.22988,1.9772742 C 8.134155,0.08361421 5.7100228,-0.56291793 3.8156129,0.53430708 Z" /><path d="M 20.183849,0.53430708 C 18.290376,-0.56291793 15.866197,0.08361421 14.769769,1.9772742 l 6.857422,3.9712533 c 1.097225,-1.8940351 0.45027,-4.3178392 -1.443342,-5.41422042 z" /><polygon points="283.943,190.245 251.719,269.859 199.501,250.803 192.214,270.78 259.499,295.23 259.717,294.731 260.791,295.166 300.541,196.964 " transform="matrix(0.04687393,0,0,0.04687393,2.6226654e-4,-1.0262536e-4)" /></g></svg>